<svg width="25" height="25" viewBox="0 0 25 25" fill="none" xmlns="http://www.w3.org/2000/svg">
<g clip-path="url(#clip0_0_86)">
<path d="M6.65706 1.96016C6.37112 1.54466 5.8029 1.4397 5.38801 1.72531C4.75562 2.15998 4.25828 2.62508 3.86711 3.14647C3.56809 3.54523 3.64445 4.1104 4.03834 4.41551C4.20442 4.54419 4.40125 4.60653 4.59653 4.60653C4.86451 4.60653 5.12978 4.48911 5.30954 4.26401C5.61892 3.87711 6.01403 3.50965 6.42194 3.2292C6.67956 3.05216 6.81765 2.76622 6.81765 2.47573C6.81765 2.2978 6.76534 2.11803 6.65706 1.96016Z" fill="black"/>
<path d="M22.3507 5.15858C21.7488 3.20998 20.3535 1.72283 18.6278 1.18353C16.3994 0.460203 14.4441 0.923469 13.0701 1.54522C11.9882 0.867734 10.696 0.5 9.37279 0.5C7.9319 0.5 6.55392 0.923703 5.388 1.72527C4.83651 2.10458 4.32304 2.58003 3.90206 3.10198C3.8534 3.15795 3.81721 3.21209 3.78951 3.25925C2.80518 4.54897 2.28534 6.0763 2.28534 7.67872C2.28534 9.38853 2.89129 11.0418 3.99304 12.3394C4.02042 12.3796 4.05112 12.4225 4.08215 12.466C4.1144 12.5113 4.14665 12.556 4.17248 12.5949C4.1819 12.6089 4.19165 12.6226 4.20168 12.636C4.61292 13.1844 5.02115 15.2781 5.19543 16.1721C5.24137 16.4082 5.28182 16.6156 5.31468 16.7698C5.40107 17.2017 5.48896 17.6687 5.54615 18.1553C5.7375 19.8143 6.05746 21.1701 6.49247 22.1733C7.09748 23.6255 7.94887 24.4069 9.02325 24.4963C9.04851 24.4984 9.07406 24.4996 9.09928 24.4996H9.22096C10.5533 24.4996 11.2937 22.9669 11.8424 21.4672C11.8469 21.4544 11.8512 21.442 11.8552 21.4292L12.6056 19.0609L13.3381 21.4237C13.3426 21.4383 13.3472 21.4529 13.3527 21.4675C13.8692 22.8793 14.6342 24.5 15.9739 24.5H16.0956C16.1217 24.5 16.1482 24.4988 16.1744 24.4967C16.9129 24.4325 17.9508 23.9774 18.7012 22.1761C19.1091 21.2024 19.4096 19.9303 19.6478 18.1581C19.7056 17.6684 19.7935 17.2021 19.8778 16.7808C19.9125 16.6166 19.9529 16.4097 19.9988 16.1742C20.1728 15.2796 20.581 13.1854 20.9962 12.6318C22.6321 10.417 23.1374 7.61998 22.3507 5.15858ZM19.5322 11.5415C18.9208 12.3576 18.5564 14.033 18.2075 15.8247C18.1637 16.0489 18.1253 16.2457 18.0904 16.4118C17.9964 16.8802 17.9006 17.3903 17.837 17.9296C17.6228 19.5236 17.3627 20.6484 17.0172 21.4722C16.7231 22.1785 16.3614 22.6241 16.0441 22.6749H16.0423C15.9437 22.5997 15.5839 22.2484 15.0744 20.8617L13.7427 16.5645C13.7375 16.5475 13.7317 16.5307 13.7257 16.5143C13.5492 16.0434 13.1121 15.7395 12.6123 15.7395C12.1125 15.7395 11.6758 16.0434 11.4993 16.5143C11.4938 16.5286 11.4887 16.5435 11.4838 16.5587L10.1211 20.8589C9.59878 22.2813 9.25931 22.6073 9.165 22.6749H9.14737C8.71298 22.6107 8.35406 21.8974 8.17186 21.46C7.80834 20.6217 7.52728 19.4067 7.35876 17.9445C7.29365 17.3918 7.19784 16.8814 7.10175 16.402C7.06889 16.2457 7.03026 16.0482 6.98648 15.8234C6.64064 14.0479 6.27956 12.3862 5.67759 11.5631C5.64473 11.5144 5.60582 11.4603 5.56715 11.4058C5.53523 11.3611 5.50326 11.3167 5.47772 11.2783C5.45704 11.2473 5.43454 11.2178 5.41017 11.1895C4.57214 10.2161 4.11042 8.96928 4.11042 7.67863C4.11042 6.47952 4.50098 5.33488 5.24076 4.36578C5.28276 4.31619 5.31468 4.26875 5.33995 4.22647C5.64473 3.85353 6.02742 3.50038 6.42225 3.22906C7.2825 2.63773 8.30268 2.32503 9.37279 2.32503C10.4995 2.32503 11.5894 2.68062 12.4414 3.32581C12.7246 3.54055 13.1066 3.57097 13.4193 3.40489C14.4849 2.84122 16.1549 2.29948 18.0739 2.92184C19.2529 3.29052 20.1761 4.30161 20.6099 5.70509C21.2213 7.61848 20.8171 9.8022 19.5322 11.5415Z" fill="#FF7854"/>
</g>
<defs>
<clipPath id="clip0_0_86">
<rect width="24" height="24" fill="white" transform="translate(0.5 0.5)"/>
</clipPath>
</defs>
</svg>
