<svg width="25" height="25" viewBox="0 0 25 25" fill="none" xmlns="http://www.w3.org/2000/svg">
<g clip-path="url(#clip0_0_130)">
<path d="M18.0744 0.5H6.95308C6.49807 0.5 6.1293 0.868766 6.1293 1.32378V5.36038C6.1293 5.81539 6.49807 6.18416 6.95308 6.18416H18.0744C18.5294 6.18416 18.8981 5.81539 18.8981 5.36038V1.32378C18.8981 0.868766 18.5294 0.5 18.0744 0.5ZM17.2506 4.53659H7.77687V2.14761H17.2505V4.53659H17.2506Z" fill="#68EEBE"/>
<path d="M16.8936 5.38802H15.246V9.17748H16.8936V5.38802Z" fill="#68EEBE"/>
<path d="M9.75402 5.38802H8.10641V9.17748H9.75402V5.38802Z" fill="#68EEBE"/>
<path d="M18.4863 8.35351H6.51373C5.75665 8.35351 5.14072 8.96944 5.14072 9.72652V23.127C5.14072 23.884 5.75665 24.5 6.51373 24.5H18.4863C19.2433 24.5 19.8593 23.884 19.8593 23.127V9.72652C19.8593 8.96944 19.2433 8.35351 18.4863 8.35351ZM18.2117 22.8524H6.78833V10.0011H18.2117V22.8524Z" fill="#68EEBE"/>
<path d="M12.5 12.6647C12.045 12.6647 11.6762 13.0335 11.6762 13.4885V19.3649C11.6762 19.8199 12.045 20.1887 12.5 20.1887C12.955 20.1887 13.3238 19.8199 13.3238 19.3649V13.4885C13.3238 13.0335 12.955 12.6647 12.5 12.6647Z" fill="#68EEBE"/>
<path d="M15.4382 15.603H9.56179C9.10677 15.603 8.73801 15.9718 8.73801 16.4268C8.73801 16.8818 9.10677 17.2506 9.56179 17.2506H15.4382C15.8935 17.2506 16.262 16.8818 16.262 16.4268C16.262 15.9718 15.8932 15.603 15.4382 15.603Z" fill="#68EEBE"/>
</g>
<defs>
<clipPath id="clip0_0_130">
<rect width="24" height="24" fill="white" transform="translate(0.5 0.5)"/>
</clipPath>
</defs>
</svg>
