<svg width="25" height="25" viewBox="0 0 25 25" fill="none" xmlns="http://www.w3.org/2000/svg">
<g clip-path="url(#clip0_0_99)">
<path d="M20.8827 8.44404L16.5557 4.11701C16.2608 3.8224 15.7838 3.82217 15.489 4.1165L4.34436 15.236L5.41053 16.3047L16.0216 5.71751L19.2824 8.97865L8.69552 19.5894L9.76394 20.6556L20.8834 9.51072C21.1775 9.21583 21.1773 8.73836 20.8827 8.44404Z" fill="#FEA725"/>
<path d="M22.1659 3.89091L21.1094 2.8343C20.8633 2.58826 20.4814 2.54223 20.1841 2.72284L16.5363 4.93669L17.3194 6.22702L20.4608 4.32033L20.6797 4.53943L18.7733 7.68079L20.0636 8.46393L22.2774 4.81613C22.458 4.51885 22.412 4.13668 22.1659 3.89091Z" fill="#FEA725"/>
<path d="M11.172 20.998L4.00223 13.8282C3.70762 13.5333 3.22964 13.5333 2.93508 13.8282C2.64023 14.1228 2.64023 14.6008 2.93508 14.8953L10.1049 22.0651C10.2521 22.2125 10.4452 22.2862 10.6385 22.2862C10.8314 22.2862 11.0249 22.2125 11.172 22.0651C11.4669 21.7706 11.4669 21.2926 11.172 20.998Z" fill="#FEA725"/>
<path d="M10.9836 14.4073L3.9402 21.4766L5.00931 22.5418L12.0527 15.4724L10.9836 14.4073Z" fill="#FEA725"/>
<path d="M9.50065 12.9242L2.45726 19.9935L3.52637 21.0587L10.5698 13.9894L9.50065 12.9242Z" fill="#FEA725"/>
<path d="M6.76946 23.2117L1.78835 18.2303C1.4935 17.9357 1.01552 17.9353 0.720911 18.2303C0.426302 18.5249 0.426302 19.0026 0.720911 19.2975L5.70203 24.2789C5.84945 24.4263 6.04267 24.5 6.23584 24.5C6.42878 24.5 6.62228 24.4263 6.76942 24.2789C7.06407 23.9843 7.06407 23.5066 6.76946 23.2117Z" fill="#FEA725"/>
<path d="M24.2789 0.721224C23.984 0.426381 23.5066 0.426381 23.2117 0.721224L20.5702 3.36272C20.2753 3.65733 20.2753 4.13531 20.5702 4.42987C20.7176 4.57729 20.9106 4.65098 21.1038 4.65098C21.297 4.65098 21.4902 4.57725 21.6373 4.42987L24.2788 1.78838C24.5737 1.49382 24.5737 1.01583 24.2789 0.721224Z" fill="#FEA725"/>
<path d="M9.25982 11.4879L8.1925 12.5552L12.4439 16.8066L13.5113 15.7393L9.25982 11.4879Z" fill="#FEA725"/>
</g>
<defs>
<clipPath id="clip0_0_99">
<rect width="24" height="24" fill="white" transform="translate(0.5 0.5)"/>
</clipPath>
</defs>
</svg>
